<?xml version="1.0" encoding="utf-8"?>
<!-- Generator: Adobe Illustrator 16.0.0, SVG Export Plug-In . SVG Version: 6.00 Build 0)  -->
<!DOCTYPE svg PUBLIC "-//W3C//DTD SVG 1.1//EN" "http://www.w3.org/Graphics/SVG/1.1/DTD/svg11.dtd">
<svg version="1.1"
	 id="svg249" inkscape:output_extension="org.inkscape.output.svg.inkscape" sodipodi:docname="document-new.svg" sodipodi:docbase="/home/jimmac/src/cvs/tango-icon-theme/scalable/actions" inkscape:version="0.46" sodipodi:version="0.32" xmlns:dc="http://purl.org/dc/elements/1.1/" xmlns:cc="http://creativecommons.org/ns#" xmlns:rdf="http://www.w3.org/1999/02/22-rdf-syntax-ns#" xmlns:svg="http://www.w3.org/2000/svg" xmlns:sodipodi="http://sodipodi.sourceforge.net/DTD/sodipodi-0.dtd" xmlns:inkscape="http://www.inkscape.org/namespaces/inkscape" inkscape:export-ydpi="240.00000" inkscape:export-xdpi="240.00000" inkscape:export-filename="/home/jimmac/gfx/novell/pdes/trunk/docs/BIGmime-text.png"
	 xmlns="http://www.w3.org/2000/svg" xmlns:xlink="http://www.w3.org/1999/xlink" x="0px" y="0px" width="48px" height="48px"
	 viewBox="0 0 48 48" enable-background="new 0 0 48 48" xml:space="preserve">
<defs  display="none">
	
	
		<inkscape:perspective  inkscape:persp3d-origin="24 : 16 : 1" inkscape:vp_z="48 : 24 : 1" inkscape:vp_y="0 : 1000 : 0" inkscape:vp_x="0 : 24 : 1" sodipodi:type="inkscape:persp3d" id="perspective69">
		</inkscape:perspective>
</defs>
<sodipodi:namedview  inkscape:showpageshadow="false" inkscape:window-y="151" inkscape:window-x="166" inkscape:window-height="688" inkscape:window-width="872" inkscape:document-units="px" inkscape:grid-bbox="true" inkscape:current-layer="layer6" inkscape:pageopacity="0.0" inkscape:pageshadow="2" showgrid="false" inkscape:cy="-6.4480487" inkscape:cx="-130.2425" inkscape:zoom="1" borderopacity="0.32941176" bordercolor="#666666" pagecolor="#ffffff" id="base">
	</sodipodi:namedview>
<g id="layer6" inkscape:groupmode="layer" inkscape:label="Shadow" display="none">
	<g id="g5022" transform="matrix(2.165152e-2,0,0,1.485743e-2,43.0076,42.68539)" display="inline">
		
			<linearGradient id="rect4173_1_" gradientUnits="userSpaceOnUse" x1="220725.1406" y1="-863517.5" x2="220725.1406" y2="-863760.375" gradientTransform="matrix(0.0601 0 0 -0.0293 -14148.3096 -25421.3242)">
			<stop  offset="0" style="stop-color:#000000;stop-opacity:0"/>
			<stop  offset="0.5" style="stop-color:#000000"/>
			<stop  offset="1" style="stop-color:#000000;stop-opacity:0"/>
		</linearGradient>
		
			<rect id="rect4173" x="-1559.211" y="-150.71" opacity="0.4021" fill="url(#rect4173_1_)" enable-background="new    " width="1339.571" height="478.389"/>
		
			<radialGradient id="path5058_1_" cx="232007.4375" cy="-871594" r="117.128" gradientTransform="matrix(0.0601 0 0 -0.0293 -14147.7686 -25421.3242)" gradientUnits="userSpaceOnUse">
			<stop  offset="0" style="stop-color:#000000"/>
			<stop  offset="1" style="stop-color:#000000;stop-opacity:0"/>
		</radialGradient>
		<path id="path5058" sodipodi:nodetypes="cccc" opacity="0.4021" fill="url(#path5058_1_)" enable-background="new    " d="
			M-219.641-150.644v478.257c142.886,0.92,345.396-107.141,345.396-239.129C125.756-43.568-33.637-150.644-219.641-150.644z"/>
		
			<radialGradient id="path5018_1_" cx="-200859.6094" cy="-871594" r="117.128" gradientTransform="matrix(-0.0601 0 0 -0.0293 -13633.2539 -25421.3242)" gradientUnits="userSpaceOnUse">
			<stop  offset="0" style="stop-color:#000000"/>
			<stop  offset="1" style="stop-color:#000000;stop-opacity:0"/>
		</radialGradient>
		<path id="path5018" sodipodi:nodetypes="cccc" opacity="0.4021" fill="url(#path5018_1_)" enable-background="new    " d="
			M-1559.211-150.644v478.257c-142.886,0.92-345.396-107.141-345.396-239.129C-1904.607-43.568-1745.17-150.644-1559.211-150.644z"
			/>
	</g>
</g>
<g id="layer1" inkscape:groupmode="layer" inkscape:label="Base" display="none">
	
		<radialGradient id="rect15391_1_" cx="101.5459" cy="-118.0591" r="86.7045" gradientTransform="matrix(0.9605 0 0 -1.0411 -64.9088 -85.7093)" gradientUnits="userSpaceOnUse">
		<stop  offset="0" style="stop-color:#FAFAFA"/>
		<stop  offset="1" style="stop-color:#BBBBBB"/>
	</radialGradient>
	
		<radialGradient id="rect15391_2_" cx="74.0479" cy="-88.9688" r="37.7517" gradientTransform="matrix(0.9683 0 0 -1.0328 -59.8009 -87.3589)" gradientUnits="userSpaceOnUse">
		<stop  offset="0" style="stop-color:#A3A3A3"/>
		<stop  offset="1" style="stop-color:#4C4C4C"/>
	</radialGradient>
	
		<path id="rect15391" display="inline" fill="url(#rect15391_1_)" stroke="url(#rect15391_2_)" stroke-linecap="round" stroke-linejoin="round" d="
		M7.752,3.646H40.33c0.634,0,1.148,0.515,1.148,1.149v38.623c0,0.635-0.515,1.148-1.148,1.148H7.752
		c-0.634,0-1.149-0.514-1.149-1.148V4.795C6.604,4.161,7.118,3.646,7.752,3.646z"/>
	
		<radialGradient id="rect15660_1_" cx="73.3672" cy="-92.4805" r="38.158" gradientTransform="matrix(0.9683 0 0 -1.0328 -59.8009 -87.3589)" gradientUnits="userSpaceOnUse">
		<stop  offset="0" style="stop-color:#FFFFFF"/>
		<stop  offset="1" style="stop-color:#F8F8F8"/>
	</radialGradient>
	
		<path id="rect15660" display="inline" fill="none" stroke="url(#rect15660_1_)" stroke-linecap="round" stroke-linejoin="round" d="
		M7.815,4.584h32.478c0.082,0,0.148,0.067,0.148,0.149v38.648c0,0.083-0.066,0.149-0.148,0.149H7.815
		c-0.082,0-0.149-0.066-0.149-0.149V4.733C7.666,4.651,7.733,4.584,7.815,4.584z"/>
	<g id="g2270" transform="translate(0.646447,-3.798933e-2)" display="inline">
		<g id="g1440" transform="matrix(0.229703,0.000000,0.000000,0.229703,4.967081,4.244972)">
			<path id="path1448" fill="#FFFFFF" d="M23.429,113.071c0,1.973-1.601,3.571-3.573,3.571c-1.975,0-3.573-1.599-3.573-3.571
				s1.601-3.571,3.573-3.571S23.429,111.098,23.429,113.071z"/>
			<path id="path1456" fill="#FFFFFF" d="M23.429,63.07c0,1.973-1.601,3.573-3.573,3.573c-1.975,0-3.573-1.601-3.573-3.573
				s1.601-3.573,3.573-3.573S23.429,61.097,23.429,63.07z"/>
		</g>
		
			<radialGradient id="path15570_1_" cx="1020.2422" cy="-1457.3361" r="5.2534" gradientTransform="matrix(0.2297 0 0 -0.2297 -224.9403 -304.4578)" gradientUnits="userSpaceOnUse">
			<stop  offset="0" style="stop-color:#F0F0F0"/>
			<stop  offset="1" style="stop-color:#9A9A9A"/>
		</radialGradient>
		<path id="path15570" fill="url(#path15570_1_)" d="M9.995,29.952c0,0.453-0.368,0.82-0.821,0.82c-0.454,0-0.821-0.367-0.821-0.82
			s0.368-0.82,0.821-0.82S9.995,29.499,9.995,29.952z"/>
		
			<radialGradient id="path15577_1_" cx="1020.2422" cy="-1407.3351" r="5.2568" gradientTransform="matrix(0.2297 0 0 -0.2297 -224.9403 -304.4578)" gradientUnits="userSpaceOnUse">
			<stop  offset="0" style="stop-color:#F0F0F0"/>
			<stop  offset="1" style="stop-color:#9A9A9A"/>
		</radialGradient>
		<path id="path15577" fill="url(#path15577_1_)" d="M9.995,18.467c0,0.453-0.368,0.821-0.821,0.821
			c-0.454,0-0.821-0.368-0.821-0.821c0-0.454,0.368-0.821,0.821-0.821S9.995,18.014,9.995,18.467z"/>
	</g>
	
		<path id="path15672" sodipodi:nodetypes="cc" display="inline" fill="none" stroke="#000000" stroke-width="0.9886" stroke-opacity="0.0175" d="
		M11.506,5.494V43.4"/>
	<path id="path15674" sodipodi:nodetypes="cc" display="inline" fill="none" stroke="#FFFFFF" stroke-opacity="0.2047" d="
		M12.5,5.021v38.018"/>
</g>
<g id="layer4" inkscape:groupmode="layer" inkscape:label="new" display="none">
	
		<radialGradient id="path12511_1_" cx="188.8809" cy="-324.7803" r="14.375" gradientTransform="matrix(0.7833 0 0 -0.7833 -111.2085 -243.1382)" gradientUnits="userSpaceOnUse">
		<stop  offset="0" style="stop-color:#FFFFFF"/>
		<stop  offset="0.5" style="stop-color:#FFF520;stop-opacity:0.8911"/>
		<stop  offset="1" style="stop-color:#FFF300;stop-opacity:0"/>
	</radialGradient>
	
		<path id="path12511" sodipodi:cx="55.000000" sodipodi:cy="125.00000" sodipodi:ry="14.375000" sodipodi:rx="14.375000" sodipodi:type="arc" inkscape:export-ydpi="33.852203" inkscape:export-xdpi="33.852203" inkscape:export-filename="/home/jimmac/ximian_art/icons/nautilus/suse93/stock_new-16.png" display="inline" fill="url(#path12511_1_)" d="
		M48,11.26c0,6.219-5.041,11.26-11.26,11.26s-11.26-5.041-11.26-11.26S30.521,0,36.74,0S48,5.041,48,11.26z"/>
</g>
<path fill="#3498DB" d="M39.801,16.287c-0.005-0.065-0.017-0.128-0.038-0.189c-0.008-0.023-0.014-0.045-0.023-0.068
	c-0.036-0.077-0.081-0.151-0.144-0.214L26.955,3.175c-0.063-0.063-0.137-0.107-0.213-0.142c-0.023-0.011-0.047-0.017-0.071-0.025
	c-0.06-0.02-0.121-0.032-0.184-0.036c-0.018-0.002-0.032-0.009-0.049-0.009H8.919c-0.404,0-0.73,0.327-0.73,0.729V44.31
	c0,0.404,0.327,0.73,0.73,0.73h30.16c0.403,0,0.729-0.326,0.729-0.73V16.332C39.81,16.316,39.802,16.302,39.801,16.287z
	 M37.318,15.603h-10.15V5.453L37.318,15.603z M9.649,43.58V4.421h16.06v11.911c0,0.403,0.326,0.73,0.73,0.73h11.91V43.58H9.649
	L9.649,43.58z"/>
<polygon fill="#3498DB" points="24.091,22.593 22.631,22.593 22.631,27.793 17.433,27.793 17.433,29.252 22.631,29.252 
	22.631,34.45 24.091,34.45 24.091,29.252 29.29,29.252 29.29,27.793 24.091,27.793 "/>
</svg>
